<svg width="16" height="16" viewBox="0 0 16 16" fill="none" xmlns="http://www.w3.org/2000/svg">
<path d="M2.04312 3.84922C2.04312 2.85174 2.85174 2.04312 3.84922 2.04312H4.67017C5.14706 2.04285 5.60449 1.85398 5.94265 1.51771L6.51732 0.943048C6.85631 0.602142 7.31724 0.410461 7.798 0.410461C8.27877 0.410461 8.73969 0.602142 9.07869 0.943048L9.65335 1.51771C9.99151 1.85398 10.4489 2.04285 10.9258 2.04312H11.7468C12.7443 2.04312 13.5529 2.85174 13.5529 3.84922V4.67017C13.5532 5.14706 13.742 5.60449 14.0783 5.94265L14.653 6.51732C14.9939 6.85631 15.1855 7.31724 15.1855 7.798C15.1855 8.27877 14.9939 8.73969 14.653 9.07869L14.0783 9.65335C13.742 9.99151 13.5532 10.4489 13.5529 10.9258V11.7468C13.5529 12.7443 12.7443 13.5529 11.7468 13.5529H10.9258C10.4489 13.5532 9.99151 13.742 9.65335 14.0783L9.07869 14.653C8.73969 14.9939 8.27877 15.1855 7.798 15.1855C7.31724 15.1855 6.85631 14.9939 6.51732 14.653L5.94265 14.0783C5.60449 13.742 5.14706 13.5532 4.67017 13.5529H3.84922C2.85174 13.5529 2.04312 12.7443 2.04312 11.7468V10.9258C2.04285 10.4489 1.85398 9.99151 1.51771 9.65335L0.943048 9.07869C0.602142 8.73969 0.410461 8.27877 0.410461 7.798C0.410461 7.31724 0.602142 6.85631 0.943048 6.51732L1.51771 5.94265C1.85398 5.60449 2.04285 5.14706 2.04312 4.67017V3.84922" stroke="#B5B5B5" stroke-width="0.820952" stroke-linecap="round" stroke-linejoin="round"/>
</svg>
