<svg width="20" height="20" viewBox="0 0 20 20" fill="none" xmlns="http://www.w3.org/2000/svg">
<path fill-rule="evenodd" clip-rule="evenodd" d="M6.45184 4.92572H4.12526C3.20712 4.92572 2.46283 5.67001 2.46283 6.58815V8.91473C2.46283 9.35558 2.63769 9.77837 2.94965 10.0903L7.9706 15.1113C8.28237 15.4231 8.70526 15.5983 9.1462 15.5983C9.58715 15.5983 10.01 15.4231 10.3218 15.1113L12.6484 12.7847C12.9602 12.4729 13.1354 12.05 13.1354 11.6091C13.1354 11.1681 12.9602 10.7453 12.6484 10.4335L7.62662 5.41254C7.31502 5.10099 6.89247 4.92589 6.45184 4.92572Z" stroke="#B5B5B5" stroke-width="0.820952" stroke-linecap="round" stroke-linejoin="round"/>
<path d="M14.4266 15.1113L16.7532 12.7847C17.065 12.4729 17.2402 12.0501 17.2402 11.6091C17.2402 11.1682 17.065 10.7453 16.7532 10.4335L10.9105 4.59161" stroke="#B5B5B5" stroke-width="0.820952" stroke-linecap="round" stroke-linejoin="round"/>
<path d="M4.92569 7.38856H4.91748" stroke="#B5B5B5" stroke-width="0.820952" stroke-linecap="round" stroke-linejoin="round"/>
</svg>
